<svg width="101" height="101" viewBox="0 0 101 101" fill="none" xmlns="http://www.w3.org/2000/svg">
<g clip-path="url(#clip0_339_1004)">
<path d="M95.9182 56.5091C95.9182 53.6991 93.6377 51.4218 90.8277 51.4218H10.1674C7.35741 51.4218 5.08008 53.6991 5.08008 56.5091V59.7433H11.3571V93.4535C11.3571 97.6254 14.738 101 18.9004 101H82.251C86.4229 101 89.7943 97.6159 89.7943 93.4535V59.7401H95.9182V56.5091Z" fill="#858585"/>
<path d="M69.7157 37.6143H74.2959C77.6577 37.6143 80.3879 34.8521 80.3879 31.4935V4.91189C80.3879 2.20078 78.1648 0 75.4473 0C72.7299 0 70.5004 2.20078 70.5004 4.91189V27.7299H66.1722C64.9825 26.9452 63.5663 26.4764 62.0353 26.4764H39.0196C34.7616 26.4764 31.2754 29.9913 31.2754 34.2493V46.4014H69.7157V37.6143Z" fill="#858585"/>
<path d="M50.5344 22.0876C56.6328 22.0876 61.5766 17.1438 61.5766 11.0454C61.5766 4.94693 56.6328 0.00317383 50.5344 0.00317383C44.4359 0.00317383 39.4922 4.94693 39.4922 11.0454C39.4922 17.1438 44.4359 22.0876 50.5344 22.0876Z" fill="#858585"/>
</g>
<defs>
<clipPath id="clip0_339_1004">
<rect width="101" height="101" fill="white"/>
</clipPath>
</defs>
</svg>
