<svg width="129" height="138" viewBox="0 0 129 138" fill="none" xmlns="http://www.w3.org/2000/svg">
<path d="M0 115V99.0438C0 95.7854 0.761458 92.7667 2.28438 89.9875C3.80729 87.2083 5.9125 85.1 8.6 83.6625C9.85417 82.9917 11.0635 82.3688 12.2281 81.7938C13.4823 81.2188 14.7813 80.6917 16.125 80.2125V115H0ZM21.5 74.75C17.0208 74.75 13.2135 73.0729 10.0781 69.7188C6.94271 66.3646 5.375 62.2917 5.375 57.5C5.375 52.7083 6.94271 48.6354 10.0781 45.2812C13.2135 41.9271 17.0208 40.25 21.5 40.25C25.9792 40.25 29.7865 41.9271 32.9219 45.2812C36.0573 48.6354 37.625 52.7083 37.625 57.5C37.625 62.2917 36.0573 66.3646 32.9219 69.7188C29.7865 73.0729 25.9792 74.75 21.5 74.75ZM21.5 63.25C23.0229 63.25 24.2771 62.7229 25.2625 61.6688C26.3375 60.5188 26.875 59.1292 26.875 57.5C26.875 55.8708 26.3375 54.5292 25.2625 53.475C24.2771 52.325 23.0229 51.75 21.5 51.75C19.9771 51.75 18.6781 52.325 17.6031 53.475C16.6177 54.5292 16.125 55.8708 16.125 57.5C16.125 59.1292 16.6177 60.5188 17.6031 61.6688C18.6781 62.7229 19.9771 63.25 21.5 63.25ZM21.5 115V98.9C21.5 95.6417 22.2615 92.6708 23.7844 89.9875C25.3969 87.2083 27.5021 85.1 30.1 83.6625C35.6542 80.6917 41.2979 78.4875 47.0312 77.05C52.7646 75.5167 58.5875 74.75 64.5 74.75C70.4125 74.75 76.2354 75.5167 81.9688 77.05C87.7021 78.4875 93.3458 80.6917 98.9 83.6625C101.498 85.1 103.558 87.2083 105.081 89.9875C106.694 92.6708 107.5 95.6417 107.5 98.9V115H21.5ZM32.25 103.5H96.75V98.9C96.75 97.8458 96.4813 96.8875 95.9437 96.025C95.4958 95.1625 94.8688 94.4917 94.0625 94.0125C89.225 91.425 84.3427 89.5083 79.4156 88.2625C74.4885 86.9208 69.5167 86.25 64.5 86.25C59.4833 86.25 54.5115 86.9208 49.5844 88.2625C44.6573 89.5083 39.775 91.425 34.9375 94.0125C34.1312 94.4917 33.4594 95.1625 32.9219 96.025C32.474 96.8875 32.25 97.8458 32.25 98.9V103.5ZM64.5 69C58.5875 69 53.526 66.7479 49.3156 62.2437C45.1052 57.7396 43 52.325 43 46C43 39.675 45.1052 34.2604 49.3156 29.7563C53.526 25.2521 58.5875 23 64.5 23C70.4125 23 75.474 25.2521 79.6844 29.7563C83.8948 34.2604 86 39.675 86 46C86 52.325 83.8948 57.7396 79.6844 62.2437C75.474 66.7479 70.4125 69 64.5 69ZM64.5 57.5C67.4563 57.5 69.9646 56.3979 72.025 54.1938C74.175 51.8938 75.25 49.1625 75.25 46C75.25 42.8375 74.175 40.1542 72.025 37.95C69.9646 35.65 67.4563 34.5 64.5 34.5C61.5438 34.5 58.9906 35.65 56.8406 37.95C54.7802 40.1542 53.75 42.8375 53.75 46C53.75 49.1625 54.7802 51.8938 56.8406 54.1938C58.9906 56.3979 61.5438 57.5 64.5 57.5ZM107.5 74.75C103.021 74.75 99.2135 73.0729 96.0781 69.7188C92.9427 66.3646 91.375 62.2917 91.375 57.5C91.375 52.7083 92.9427 48.6354 96.0781 45.2812C99.2135 41.9271 103.021 40.25 107.5 40.25C111.979 40.25 115.786 41.9271 118.922 45.2812C122.057 48.6354 123.625 52.7083 123.625 57.5C123.625 62.2917 122.057 66.3646 118.922 69.7188C115.786 73.0729 111.979 74.75 107.5 74.75ZM107.5 63.25C109.023 63.25 110.277 62.7229 111.263 61.6688C112.338 60.5188 112.875 59.1292 112.875 57.5C112.875 55.8708 112.338 54.5292 111.263 53.475C110.277 52.325 109.023 51.75 107.5 51.75C105.977 51.75 104.678 52.325 103.603 53.475C102.618 54.5292 102.125 55.8708 102.125 57.5C102.125 59.1292 102.618 60.5188 103.603 61.6688C104.678 62.7229 105.977 63.25 107.5 63.25ZM112.875 115V80.2125C114.219 80.6917 115.473 81.2188 116.638 81.7938C117.892 82.3688 119.146 82.9917 120.4 83.6625C123.088 85.1 125.193 87.2083 126.716 89.9875C128.239 92.7667 129 95.7854 129 99.0438V115H112.875Z" fill="#858585"/>
</svg>
