<svg width="116" height="116" viewBox="0 0 116 116" fill="none" xmlns="http://www.w3.org/2000/svg">
<path d="M58.0006 58C52.684 58 48.1326 56.107 44.3465 52.3209C40.5604 48.5348 38.6673 43.9834 38.6673 38.6667C38.6673 33.35 40.5604 28.7987 44.3465 25.0125C48.1326 21.2264 52.684 19.3334 58.0006 19.3334C63.3173 19.3334 67.8687 21.2264 71.6548 25.0125C75.4409 28.7987 77.334 33.35 77.334 38.6667C77.334 43.9834 75.4409 48.5348 71.6548 52.3209C67.8687 56.107 63.3173 58 58.0006 58ZM19.334 96.6667V83.1334C19.334 80.3945 20.0388 77.8771 21.4486 75.5813C22.8583 73.2855 24.7312 71.5334 27.0673 70.325C32.0618 67.8278 37.1368 65.9549 42.2923 64.7063C47.4479 63.4577 52.684 62.8334 58.0006 62.8334C63.3173 62.8334 68.5534 63.4577 73.709 64.7063C78.8645 65.9549 83.9395 67.8278 88.934 70.325C91.2701 71.5334 93.143 73.2855 94.5527 75.5813C95.9624 77.8771 96.6673 80.3945 96.6673 83.1334V96.6667H19.334ZM29.0007 87H87.0006V83.1334C87.0006 82.2473 86.7791 81.4417 86.3361 80.7167C85.893 79.9917 85.309 79.4278 84.584 79.025C80.234 76.85 75.8437 75.2188 71.4132 74.1313C66.9826 73.0438 62.5118 72.5 58.0006 72.5C53.4895 72.5 49.0187 73.0438 44.5881 74.1313C40.1576 75.2188 35.7673 76.85 31.4173 79.025C30.6923 79.4278 30.1083 79.9917 29.6652 80.7167C29.2222 81.4417 29.0007 82.2473 29.0007 83.1334V87ZM58.0006 48.3334C60.659 48.3334 62.9347 47.3868 64.8277 45.4938C66.7208 43.6007 67.6673 41.325 67.6673 38.6667C67.6673 36.0084 66.7208 33.7327 64.8277 31.8396C62.9347 29.9466 60.659 29 58.0006 29C55.3423 29 53.0666 29.9466 51.1736 31.8396C49.2805 33.7327 48.334 36.0084 48.334 38.6667C48.334 41.325 49.2805 43.6007 51.1736 45.4938C53.0666 47.3868 55.3423 48.3334 58.0006 48.3334Z" fill="#858585"/>
</svg>
