<svg width="142" height="142" viewBox="0 0 142 142" fill="none" xmlns="http://www.w3.org/2000/svg">
<g filter="url(#filter0_d_438_1907)">
<path d="M71.0007 94.6668C84.0528 94.6668 94.6673 84.0523 94.6673 71.0002C94.6673 57.948 84.0528 47.3335 71.0007 47.3335C57.9485 47.3335 47.334 57.948 47.334 71.0002C47.334 84.0523 57.9485 94.6668 71.0007 94.6668ZM71.0007 59.1668C77.4143 59.1668 82.834 64.5865 82.834 71.0002C82.834 77.4138 77.4143 82.8335 71.0007 82.8335C64.587 82.8335 59.1673 77.4138 59.1673 71.0002C59.1673 64.5865 64.587 59.1668 71.0007 59.1668Z" fill="white"/>
<path d="M16.8327 95.4715L22.7494 105.707C25.8911 111.133 33.4526 113.168 38.9019 110.027L42.0318 108.216C45.4548 110.909 49.2289 113.122 53.2498 114.795V118.334C53.2498 124.86 58.557 130.167 65.0831 130.167H76.9165C83.4425 130.167 88.7498 124.86 88.7498 118.334V114.795C92.7693 113.122 96.5431 110.911 99.9678 108.222L103.098 110.032C108.559 113.168 116.103 111.145 119.256 105.707L125.167 95.4774C126.735 92.7599 127.16 89.5311 126.349 86.5003C125.538 83.4694 123.557 80.8844 120.842 79.3131L117.854 77.5854C118.489 73.2222 118.489 68.79 117.854 64.4267L120.842 62.6991C123.556 61.1266 125.536 58.5416 126.347 55.5113C127.158 52.4809 126.733 49.2526 125.167 46.5347L119.256 36.3048C116.114 30.8615 108.559 28.8202 103.098 31.9738L99.9678 33.7843C96.5448 31.0917 92.7707 28.8782 88.7498 27.205V23.6668C88.7498 17.1407 83.4425 11.8335 76.9165 11.8335H65.0831C58.557 11.8335 53.2498 17.1407 53.2498 23.6668V27.205C49.2303 28.8785 45.4565 31.0898 42.0318 33.7784L38.9019 31.9679C33.4349 28.8262 25.8852 30.8615 22.7435 36.2989L16.8327 46.5288C15.2647 49.2463 14.8394 52.4751 15.6504 55.506C16.4614 58.5368 18.4422 61.1218 21.1578 62.6932L24.1457 64.4208C23.5081 68.7819 23.5081 73.2125 24.1457 77.5736L21.1578 79.3012C18.443 80.8749 16.4631 83.4609 15.6523 86.4922C14.8415 89.5236 15.266 92.7527 16.8327 95.4715ZM36.5115 79.1533C35.8435 76.487 35.5037 73.749 35.4998 71.0002C35.4998 68.2667 35.843 65.5213 36.5056 62.847C36.8177 61.6005 36.715 60.2863 36.2133 59.1034C35.7115 57.9205 34.8379 56.9333 33.7248 56.2913L27.0804 52.4455L32.9852 42.2156L39.7598 46.1324C40.8646 46.7717 42.1469 47.0354 43.4143 46.8839C44.6817 46.7324 45.8658 46.1739 46.7888 45.2922C50.7915 41.4852 55.6184 38.6526 60.8941 37.0148C62.106 36.6448 63.1671 35.8956 63.9212 34.8773C64.6753 33.859 65.0826 32.6256 65.0831 31.3585V23.6668H76.9165V31.3585C76.917 32.6256 77.3243 33.859 78.0784 34.8773C78.8325 35.8956 79.8936 36.6448 81.1055 37.0148C86.3801 38.655 91.2065 41.4872 95.2108 45.2922C96.1348 46.1722 97.3187 46.7295 98.5856 46.881C99.8525 47.0324 101.134 46.7698 102.24 46.1324L109.008 42.2215L114.925 52.4514L108.275 56.2913C107.162 56.934 106.289 57.9213 105.788 59.104C105.286 60.2867 105.183 61.6005 105.494 62.847C106.157 65.5213 106.5 68.2667 106.5 71.0002C106.5 73.7277 106.157 76.4731 105.488 79.1533C105.178 80.4005 105.282 81.7148 105.784 82.8975C106.287 84.0803 107.161 85.0672 108.275 85.709L114.919 89.5489L109.014 99.7788L102.24 95.8679C101.135 95.2277 99.8527 94.9634 98.5851 95.115C97.3174 95.2665 96.1333 95.8256 95.2108 96.7081C91.208 100.515 86.3812 103.348 81.1055 104.985C79.8936 105.355 78.8325 106.105 78.0784 107.123C77.3243 108.141 76.917 109.375 76.9165 110.642L76.9283 118.334H65.0831V110.642C65.0826 109.375 64.6753 108.141 63.9212 107.123C63.1671 106.105 62.106 105.355 60.8941 104.985C55.6194 103.345 50.7931 100.513 46.7888 96.7081C45.8676 95.823 44.6828 95.2627 43.4142 95.1121C42.1456 94.9616 40.8626 95.229 39.7598 95.8738L32.9911 99.7907L27.0745 89.5608L33.7248 85.709C34.8383 85.0672 35.7125 84.0803 36.2153 82.8975C36.7181 81.7148 36.8221 80.4005 36.5115 79.1533Z" fill="white"/>
</g>
<defs>
<filter id="filter0_d_438_1907" x="-4" y="0" width="150" height="150" filterUnits="userSpaceOnUse" color-interpolation-filters="sRGB">
<feFlood flood-opacity="0" result="BackgroundImageFix"/>
<feColorMatrix in="SourceAlpha" type="matrix" values="0 0 0 0 0 0 0 0 0 0 0 0 0 0 0 0 0 0 127 0" result="hardAlpha"/>
<feOffset dy="4"/>
<feGaussianBlur stdDeviation="2"/>
<feComposite in2="hardAlpha" operator="out"/>
<feColorMatrix type="matrix" values="0 0 0 0 0 0 0 0 0 0 0 0 0 0 0 0 0 0 0.25 0"/>
<feBlend mode="normal" in2="BackgroundImageFix" result="effect1_dropShadow_438_1907"/>
<feBlend mode="normal" in="SourceGraphic" in2="effect1_dropShadow_438_1907" result="shape"/>
</filter>
</defs>
</svg>
